<svg width="72" height="61" viewBox="0 0 72 61" fill="none" xmlns="http://www.w3.org/2000/svg">
<g filter="url(#filter0_d)">
<path d="M59.7282 8.75536C65.2859 12.4736 66.9669 18.8622 65.4917 25.1495C65.4231 25.4199 65.3545 25.6565 65.2859 25.8931C58.5961 25.8931 51.872 25.8931 45.1822 25.8931C44.4961 23.5946 43.7756 21.2622 43.0895 18.9636C42.8493 18.1862 41.5457 17.8482 41.1683 18.727C41.0654 18.9636 40.9625 19.2003 40.8596 19.4369C40.1734 20.9918 39.4873 22.5805 38.8355 24.1354C38.3552 23.2227 37.8749 22.3101 37.3946 21.3974C37.0515 20.7552 35.8851 20.6876 35.5763 21.3974C35.4391 21.7016 35.3019 22.0059 35.199 22.2763C33.2092 26.8396 31.2194 31.4367 29.2639 36C26.6566 29.51 24.1522 23.0537 21.6478 16.5637C21.3391 15.7862 20.1726 15.4482 19.7267 16.3271C19.6237 16.5637 19.4865 16.7665 19.3493 17.0031C17.7369 19.9439 16.0901 22.9185 14.4777 25.8931C11.9047 25.8931 9.33174 25.8931 6.75874 25.8931C6.41567 24.6762 6.17552 23.4256 6.0726 22.1073C5.45508 15.7862 8.81714 10.1074 14.615 7.47087C18.9376 5.51034 24.2551 5.57794 28.6464 7.26806C32.2143 8.68775 34.65 11.1891 36.0223 14.2651C37.8063 10.4793 41.0311 7.67368 45.5253 6.59201C50.3282 5.44273 55.6114 5.98357 59.7282 8.75536V8.75536Z" fill="white"/>
<path d="M43.8703 28.6206H64C61.9117 33.7728 57.9748 37.2413 52.9423 40.1372C46.5063 43.9088 40.3099 47.3772 36.818 54.2468C36.5441 54.8529 35.9964 55.055 35.5171 54.9876C34.9694 55.055 34.4901 54.8529 34.2162 54.2468C30.1766 46.468 22.8162 43.3026 15.764 38.7229C11.6559 36.0963 8.67748 32.7626 7 28.587H14.6342C15.0108 28.587 15.3874 28.3849 15.5586 28.0818C17.0306 25.3879 18.5027 22.6939 19.9748 20C22.5081 26.5328 25.0414 33.0656 27.5748 39.6321C27.8486 40.3393 29.1153 40.7771 29.4919 39.8679C29.5946 39.6321 29.6973 39.3964 29.8 39.1607C31.8541 34.4463 33.9081 29.6982 35.9622 24.9838C36.4414 25.893 36.9207 26.8022 37.4 27.7114C37.7423 28.3512 38.9063 28.4186 39.2144 27.7114C39.3514 27.4084 39.4883 27.1053 39.591 26.8359C40.1387 25.5563 40.7207 24.243 41.2685 22.9297C41.7478 24.5797 42.2613 26.1961 42.7405 27.8461C42.9802 28.2839 43.391 28.6206 43.8703 28.6206V28.6206Z" fill="white"/>
</g>
<defs>
<filter id="filter0_d" x="0" y="0" width="72" height="61" filterUnits="userSpaceOnUse" color-interpolation-filters="sRGB">
<feFlood flood-opacity="0" result="BackgroundImageFix"/>
<feColorMatrix in="SourceAlpha" type="matrix" values="0 0 0 0 0 0 0 0 0 0 0 0 0 0 0 0 0 0 127 0"/>
<feOffset/>
<feGaussianBlur stdDeviation="3"/>
<feColorMatrix type="matrix" values="0 0 0 0 0 0 0 0 0 0 0 0 0 0 0 0 0 0 0.9 0"/>
<feBlend mode="normal" in2="BackgroundImageFix" result="effect1_dropShadow"/>
<feBlend mode="normal" in="SourceGraphic" in2="effect1_dropShadow" result="shape"/>
</filter>
</defs>
</svg>
