<svg width="150" height="186" viewBox="0 0 150 186" fill="none" xmlns="http://www.w3.org/2000/svg">
<g filter="url(#filter0_d)">
<path d="M106.433 12.3096C106.234 12.2097 106.009 12.1745 105.789 12.2089C105.57 12.2433 105.366 12.3456 105.208 12.5014L95.1042 22.4459C93.7046 23.8235 91.3808 23.5071 90.4004 21.8055L78.1155 0.484145C78.0115 0.334703 77.8729 0.212628 77.7115 0.128328C77.5501 0.044027 77.3707 0 77.1886 0C77.0066 0 76.8272 0.044027 76.6658 0.128328C76.5044 0.212628 76.3658 0.334703 76.2618 0.484145L63.9769 21.8055C62.9965 23.5071 60.6727 23.8235 59.2731 22.4459L49.1697 12.5014C49.0112 12.3404 48.8057 12.234 48.5828 12.1975C48.3599 12.1609 48.1311 12.1962 47.9295 12.2982C47.728 12.4001 47.564 12.5635 47.4614 12.7647C47.3588 12.9659 47.3228 13.1946 47.3586 13.4176L51.62 41.9693C51.6585 42.2233 51.7876 42.4549 51.9833 42.6213C52.1791 42.7877 52.4284 42.8777 52.6854 42.8748H101.692C101.949 42.8777 102.198 42.7877 102.394 42.6213C102.59 42.4549 102.719 42.2233 102.757 41.9693L107.019 13.4176C107.051 13.1947 107.011 12.9674 106.906 12.7683C106.801 12.5693 106.635 12.4087 106.433 12.3096Z" fill="#FF9900"/>
</g>
<g filter="url(#filter1_d)">
<path d="M145.561 106.561C145.561 105.675 145.169 104.895 144.566 104.425C144.607 104.277 144.637 104.122 144.637 103.959C144.637 103.098 144.016 102.399 143.251 102.398V101.298H143.221C143.626 95.8253 139.167 79.4048 139.167 79.4048C137.048 69.8617 140.959 54.6288 140.959 54.6288C143.567 48.2048 141.342 46.6175 141.342 46.6175L141.216 46.4756C141.665 46.0972 141.959 45.4968 141.959 44.8166C141.959 44.5066 141.895 44.2163 141.788 43.952C142.23 43.4789 142.508 42.815 142.508 42.0728C142.508 40.6356 141.475 39.4709 140.199 39.4709C139.537 39.4709 138.946 39.7873 138.526 40.2881C138.295 40.1723 138.042 40.1054 137.774 40.1054C137.21 40.1054 136.714 40.3942 136.373 40.8411C134.584 37.6618 128.08 41.2261 127.922 41.05C117.819 44.9031 105.922 42.1511 105.922 41.9667C94.4709 39.156 80.2461 39.0272 77.5402 39.0288C77.5416 38.9864 77.5532 38.944 77.5532 38.9015C77.5518 37.1756 76.3118 35.7793 74.7807 35.7793C73.2496 35.7793 72.0082 37.1756 72.0082 38.9015C72.0082 38.9358 72.0169 38.9684 72.0183 39.0027C62.9069 38.218 43.5108 42.3321 43.673 42.1511C31.9383 44.9047 21.3015 41.5948 21.3015 41.5948C15.3943 38.802 13.2881 40.1854 12.6797 40.8509C12.3611 40.554 11.9569 40.3697 11.5108 40.3697C11.2355 40.3697 10.9762 40.4415 10.743 40.5622C10.32 40.0647 9.73048 39.7514 9.07139 39.7514C7.79666 39.7514 6.76239 40.9162 6.76239 42.3534C6.76239 43.0972 7.04341 43.7628 7.48812 44.2375C7.38527 44.4952 7.32588 44.7807 7.32588 45.0825C7.32588 45.598 7.49826 46.0662 7.77493 46.4283C5.55864 48.9715 8.14142 54.9909 7.98352 54.8147C12.5465 67.1098 9.64791 77.5647 9.64791 77.5647C6.74936 90.7732 6.309 101.853 6.309 101.853H6.37563V102.406C6.35245 102.404 6.33217 102.398 6.309 102.398C5.54416 102.398 4.92273 103.098 4.92273 103.959C4.92273 104.124 4.9517 104.277 4.99371 104.425C4.39401 104.895 4 105.675 4 106.561C4 107.445 4.39401 108.226 4.99371 108.696C4.95315 108.843 4.92418 109 4.92418 109.161C4.92418 110.022 5.54561 110.722 6.31044 110.722C6.33362 110.722 6.3539 110.716 6.37708 110.714V111.267H6.31044C6.31044 111.267 6.7508 122.348 9.64936 135.555C9.64936 135.555 12.5465 146.012 7.98497 158.307C8.14286 158.129 5.56009 164.148 7.77638 166.693C7.49971 167.057 7.32733 167.522 7.32733 168.037C7.32733 168.341 7.38672 168.625 7.48957 168.886C7.04486 169.359 6.76384 170.026 6.76384 170.768C6.76384 172.205 7.79811 173.37 9.07284 173.37C9.73193 173.37 10.3215 173.057 10.743 172.559C10.9777 172.68 11.2355 172.752 11.5108 172.752C11.9569 172.752 12.3611 172.566 12.6797 172.269C13.2881 172.935 15.3958 174.321 21.3015 171.527C21.3015 171.527 31.9397 168.217 43.673 170.969C43.5122 170.789 62.9084 174.902 72.0183 174.117C72.0169 174.152 72.0082 174.186 72.0082 174.22C72.0082 175.946 73.2481 177.341 74.7807 177.341C76.3133 177.341 77.5532 175.946 77.5532 174.22C77.5532 174.178 77.5416 174.135 77.5402 174.091C80.2461 174.093 94.4709 173.964 105.925 171.153C105.925 170.969 117.822 168.215 127.925 172.07C128.083 171.894 134.587 175.458 136.376 172.279C136.715 172.724 137.213 173.013 137.777 173.013C138.045 173.013 138.297 172.946 138.529 172.832C138.949 173.333 139.54 173.647 140.202 173.647C141.478 173.647 142.511 172.484 142.511 171.047C142.511 170.305 142.233 169.641 141.791 169.166C141.898 168.904 141.962 168.612 141.962 168.302C141.962 167.621 141.668 167.024 141.219 166.643L141.345 166.501C141.345 166.501 143.57 164.912 140.962 158.49C140.962 158.49 137.051 143.258 139.17 133.714C139.17 133.714 143.694 117.055 143.213 111.703H143.252V110.721C144.017 110.721 144.639 110.021 144.639 109.159C144.639 108.996 144.608 108.841 144.569 108.693C145.167 108.225 145.561 107.445 145.561 106.561ZM128.364 57.0561V156.501V156.938H21.1943V156.501V57.0561V56.6189H128.364V57.0561Z" fill="#FF9900"/>
</g>
<rect x="18" y="50" width="114" height="112" fill="#FF9900"/>
<defs>
<filter id="filter0_d" x="47.3451" y="0" width="61.6844" height="44.8749" filterUnits="userSpaceOnUse" color-interpolation-filters="sRGB">
<feFlood flood-opacity="0" result="BackgroundImageFix"/>
<feColorMatrix in="SourceAlpha" type="matrix" values="0 0 0 0 0 0 0 0 0 0 0 0 0 0 0 0 0 0 127 0"/>
<feOffset dx="1" dy="1"/>
<feGaussianBlur stdDeviation="0.5"/>
<feColorMatrix type="matrix" values="0 0 0 0 0 0 0 0 0 0 0 0 0 0 0 0 0 0 0.08 0"/>
<feBlend mode="normal" in2="BackgroundImageFix" result="effect1_dropShadow"/>
<feBlend mode="normal" in="SourceGraphic" in2="effect1_dropShadow" result="shape"/>
</filter>
<filter id="filter1_d" x="0" y="35.7793" width="149.561" height="149.561" filterUnits="userSpaceOnUse" color-interpolation-filters="sRGB">
<feFlood flood-opacity="0" result="BackgroundImageFix"/>
<feColorMatrix in="SourceAlpha" type="matrix" values="0 0 0 0 0 0 0 0 0 0 0 0 0 0 0 0 0 0 127 0"/>
<feOffset dy="4"/>
<feGaussianBlur stdDeviation="2"/>
<feColorMatrix type="matrix" values="0 0 0 0 0 0 0 0 0 0 0 0 0 0 0 0 0 0 0.25 0"/>
<feBlend mode="normal" in2="BackgroundImageFix" result="effect1_dropShadow"/>
<feBlend mode="normal" in="SourceGraphic" in2="effect1_dropShadow" result="shape"/>
</filter>
</defs>
</svg>
